<?xml version="1.0" encoding="UTF-8" standalone="no"?>
<!DOCTYPE svg PUBLIC "-//W3C//DTD SVG 1.1//EN" "http://www.w3.org/Graphics/SVG/1.1/DTD/svg11.dtd">
<svg width="100%" height="100%" viewBox="0 0 16 16" version="1.1" xmlns="http://www.w3.org/2000/svg" xmlns:xlink="http://www.w3.org/1999/xlink" xml:space="preserve" xmlns:serif="http://www.serif.com/" style="fill-rule:evenodd;clip-rule:evenodd;stroke-linejoin:round;stroke-miterlimit:2;">
    <rect x="0" y="0" width="16" height="16" style="fill:white;"/>
    <path d="M0,16L5,11L2,11L4,9L6,9L8,7L6,7L8,5L11,5L16,0L0,0L0,16Z" style="fill:rgb(21,21,30);"/>
    <path d="M16,0L14,2L16,2L16,0Z" style="fill:rgb(239,135,51);"/>
    <path d="M16,2L16,4L12,4L14,2L16,2Z" style="fill:rgb(117,241,211);"/>
    <path d="M11,6L12,5L11,5L12,4L16,4L16,6L11,6Z" style="fill:rgb(69,112,192);"/>
    <path d="M9,8L11,6L16,6L16,8L9,8Z" style="fill:rgb(213,46,55);"/>
    <path d="M4,12L3,13L16,13L16,12L4,12Z" style="fill:rgb(223,225,226);"/>
    <path d="M3,13L2,14L16,14L16,13L3,13Z" style="fill:rgb(235,69,38);"/>
    <path d="M2,14L1,15L16,15L16,14L2,14Z" style="fill:rgb(71,159,226);"/>
    <path d="M1,15L0,16L16,16L16,15L1,15Z" style="fill:rgb(170,170,221);"/>
    <path d="M9,10L10,9L8,9L9,8L16,8L16,10L9,10Z" style="fill:rgb(50,103,212);"/>
    <path d="M9,10L8,11L16,11L16,10L9,10Z" style="fill:rgb(112,145,248);"/>
    <path d="M5,11L4,12L16,12L16,11L5,11Z" style="fill:rgb(75,151,116);"/>
    <path d="M2,11L4,9L6,9L8,7L6,7L7,6L8.844,6L10,5L0,5L0,11L2,11Z" style="fill:rgb(255,30,0);"/>
</svg>
